<?xml version="1.0" encoding="UTF-8" standalone="no"?>
<!-- Created with Inkscape (http://www.inkscape.org/) -->

<svg
   width="152mm"
   height="39mm"
   viewBox="0 0 152 39"
   version="1.1"
   id="svg1262"
   inkscape:version="1.1 (1:1.1+202105261517+ce6663b3b7)"
   sodipodi:docname="logo.svg"
   xmlns:inkscape="http://www.inkscape.org/namespaces/inkscape"
   xmlns:sodipodi="http://sodipodi.sourceforge.net/DTD/sodipodi-0.dtd"
   xmlns="http://www.w3.org/2000/svg"
   xmlns:svg="http://www.w3.org/2000/svg">
  <sodipodi:namedview
     id="namedview1264"
     pagecolor="#ffffff"
     bordercolor="#666666"
     borderopacity="1.0"
     inkscape:pageshadow="2"
     inkscape:pageopacity="0.0"
     inkscape:pagecheckerboard="0"
     inkscape:document-units="mm"
     showgrid="false"
     inkscape:zoom="0.82394606"
     inkscape:cx="302.20425"
     inkscape:cy="10.316209"
     inkscape:window-width="1600"
     inkscape:window-height="837"
     inkscape:window-x="0"
     inkscape:window-y="36"
     inkscape:window-maximized="1"
     inkscape:current-layer="layer5" />
  <defs
     id="defs1259" />
  <g
     inkscape:label="greenbg"
     inkscape:groupmode="layer"
     id="layer1"
     sodipodi:insensitive="true"
     style="display:none">
    <rect
       style="fill:#004a66;fill-rule:evenodd;stroke-width:0.919246;stroke-linecap:round;stroke-linejoin:round;paint-order:fill markers stroke"
       id="rect1811"
       width="152"
       height="39"
       x="0"
       y="0"
       ry="0" />
  </g>
  <g
     inkscape:groupmode="layer"
     id="layer4"
     inkscape:label="wolf"
     sodipodi:insensitive="true">
    <path
       id="path22769"
       style="fill:#ffffff;fill-opacity:1;stroke:none;stroke-width:0.264079px;stroke-linecap:butt;stroke-linejoin:miter;stroke-opacity:1"
       d="M 31.262633,5 25.330187,8.3684038 C 21.80377,6.8775994 18.283006,6.7398899 14.769936,8.4445144 L 8.8649079,5.0601685 C 6.6878942,8.3614545 6.210287,11.6196 8.0558438,14.818768 6.735743,17.557032 5.0245046,20.012031 5.6229614,24.139733 c 12.0477446,0.05076 5.2870076,9.952171 14.4079606,9.859394 9.108589,0.108111 2.330362,-9.85643 14.420893,-10.024472 0.30804,-3.499911 -0.901191,-6.543776 -2.47582,-9.477813 C 33.983106,11.068843 33.556133,7.9253403 31.262633,5 Z M 16.527219,18.597551 a 2.0785336,2.0663018 0 0 1 2.078529,2.066297 2.0785336,2.0663018 0 0 1 -2.078529,2.066297 2.0785336,2.0663018 0 0 1 -2.078528,-2.066297 2.0785336,2.0663018 0 0 1 2.078528,-2.066297 z m 7.007405,0 a 2.0785336,2.0663019 0 0 1 2.078529,2.066297 2.0785336,2.0663019 0 0 1 -2.078529,2.066297 2.0785336,2.0663019 0 0 1 -2.078529,-2.066297 2.0785336,2.0663019 0 0 1 2.078529,-2.066297 z" />
  </g>
  <g
     inkscape:groupmode="layer"
     id="layer5"
     inkscape:label="text"
     sodipodi:insensitive="true">
    <path
       d="M 45.160504,29.051505 41,10.878185 h 3.414129 l 2.649378,11.62572 2.369379,-8.463568 v 0 q 0.447803,-1.543862 1.324641,-2.418178 v 0 0 q 0.876929,-0.874309 2.444065,-0.743974 v 0 l 3.320957,11.62572 1.902986,-8.500794 v 0 q 0.391784,-1.69273 1.361946,-2.529824 v 0 0 q 0.951507,-0.818403 2.761218,-0.595102 v 0 l -4.160472,18.17332 h -3.302312 l -3.358234,-11.737411 -3.28358,11.737411 z m 25.765135,-13.8021 v 0 0 q 2.070916,0 3.675428,1.004474 v 0 0 q 1.60447,0.985822 2.518648,2.511126 v 0 0 q 0.914223,1.543923 0.98883,3.422632 v 0 0 q 0.05575,1.878736 -0.951515,3.664479 v 0 0 q -0.876849,1.488082 -2.257468,2.380923 v 0 0 q -1.380615,0.874255 -2.947805,1.097461 v 0 0 q -1.567141,0.223202 -3.153004,-0.260385 v 0 0 Q 67.231583,28.586482 65.9629,27.340216 v 0 0 q -1.399243,-1.432311 -1.865685,-3.311015 v 0 0 q -0.485081,-1.878745 0.07434,-3.738847 v 0 0 q 0.223882,-0.76267 0.764915,-1.264856 v 0 0 q 0.541073,-0.483636 1.212694,-0.725445 v 0 0 q 0.690315,-0.223275 1.417923,-0.204631 v 0 0 q 0.727631,0.01844 1.361992,0.297604 v 0 0 q 0.615648,0.279032 1.044789,0.781187 v 0 0 q 0.429082,0.502323 0.522376,1.246286 v 0 0 q -0.391777,-0.297531 -0.95151,-0.316214 v 0 0 q -0.541024,0 -1.04479,0.241813 v 0 0 q -0.522379,0.241811 -0.876857,0.762616 v 0 0 Q 67.2686,21.611019 67.2686,22.373659 v 0 0 q 0,1.302084 0.559739,2.157695 v 0 0 q 0.541027,0.855666 1.361924,1.283521 v 0 0 q 0.820911,0.42781 1.772394,0.42781 v 0 0 q 0.970149,0 1.791051,-0.446409 v 0 0 q 0.820938,-0.42783 1.361978,-1.302129 v 0 0 q 0.559723,-0.874215 0.559723,-2.176365 v 0 0 q 0,-1.023 -0.373147,-1.804257 v 0 0 q -0.373157,-0.781281 -0.970149,-1.283442 v 0 0 q -0.6157,-0.502292 -1.436621,-0.706902 v 0 0 q -0.802239,-0.185946 -1.716394,-0.01843 v 0 0 Q 69.787287,18.03964 69.227577,17.77931 v 0 0 Q 68.66787,17.500289 68.014879,17.407234 v 0 0 q -0.652994,-0.09301 -1.305962,0.01844 v 0 0 q -0.653001,0.130195 -1.231357,0.465034 v 0 0 q 1.044764,-1.246255 2.425379,-1.934528 v 0 0 q 1.38064,-0.706855 3.022404,-0.706855 z m 12.574766,-4.427132 v 0 18.229232 H 80.19811 v -15.569251 0 q 0,-1.246306 0.895553,-1.953047 v 0 0 q 0.895517,-0.725451 2.406742,-0.706934 z m 2.611976,7.607969 v -2.883248 h 1.19403 v 0 q 0,-0.688292 0,-1.339288 v 0 0 q -0.01855,-0.669543 0.03717,-1.246303 v 0 0 q 0.07434,-0.595138 0.223885,-1.097432 v 0 0 q 0.13057,-0.483636 0.44776,-0.874316 v 0 0 q 0.373099,-0.446417 0.9888,-0.688242 v 0 0 q 0.597008,-0.26031 1.604498,-0.29753 v 0 0 q 1.063426,-0.037032 1.958964,0.279031 v 0 0 q 0.876868,0.316251 1.361938,0.874329 v 0 0 q 0.485097,0.557876 0.466443,1.283322 v 0 0 q 0,0.725465 -0.746303,1.54403 v 0 0 Q 93.48168,13.463755 92.99659,13.14751 v 0 0 q -0.485086,-0.316251 -0.988796,-0.334787 v 0 0 q -0.522377,-0.03703 -0.914198,0.24185 v 0 0 q -0.391788,0.278956 -0.391788,0.930033 v 0 1.562409 h 3.33959 v 0 q 0,1.302174 -0.727632,2.101962 v 0 0 q -0.727626,0.781286 -1.828349,0.781286 v 0 H 90.701812 V 29.051528 H 87.306268 V 18.430263 Z m 25.877089,-1.097439 v 0 0 q -0.2612,-0.799889 -0.9142,-1.469598 v 0 0 q -0.67162,-0.688222 -1.62314,-1.153158 v 0 0 q -0.93284,-0.465132 -2.0336,-0.706936 v 0 0 q -1.11942,-0.223094 -2.2575,-0.148804 v 0 0 q -1.13807,0.07407 -2.20151,0.502268 v 0 0 q -1.08209,0.427818 -1.94032,1.264831 v 0 0 q -0.97017,0.930032 -1.39926,2.083395 v 0 0 q -0.42911,1.153253 -0.39178,2.32511 v 0 0 q 0.0185,1.171891 0.48507,2.269404 v 0 0 q 0.44776,1.116023 1.30597,1.971685 v 0 0 q 0.83957,0.855675 2.0336,1.376484 v 0 0 q 1.17539,0.520833 2.66792,0.520833 v 0 0 q 1.77245,0 3.04111,-0.762641 v 0 0 q 1.25,-0.744084 1.73507,-2.343756 v 0 h -4.83212 v 0 q -0.67166,0 -1.19406,-0.278996 v 0 0 q -0.52236,-0.279031 -0.83954,-0.74408 v 0 0 q -0.33583,-0.446462 -0.48508,-1.023062 v 0 0 q -0.16792,-0.576636 -0.11193,-1.171863 v 0 h 11.3434 v 0 q 0.20521,2.362333 -0.52242,4.185264 v 0 0 q -0.74626,1.804297 -2.05225,3.031995 v 0 0 q -1.32464,1.209058 -3.04106,1.841503 v 0 0 q -1.73508,0.632431 -3.48885,0.595254 v 0 0 q -1.19404,-0.01844 -2.38807,-0.316251 v 0 0 q -1.1754,-0.297642 -2.25747,-0.892835 v 0 0 q -1.1008,-0.576654 -2.014945,-1.4695 v 0 0 q -0.93287,-0.892861 -1.585857,-2.064743 v 0 0 Q 96.243037,23.415332 95.944556,21.96444 v 0 0 q -0.298535,-1.45089 -0.186593,-2.845968 v 0 0 q 0.111933,-1.413675 0.634338,-2.715766 v 0 0 q 0.522376,-1.302155 1.399254,-2.399595 v 0 0 q 1.250015,-1.581077 3.208985,-2.566939 v 0 0 q 1.95896,-0.967199 4.49629,-0.967199 v 0 0 q 1.86572,0 3.5635,0.539388 v 0 0 q 1.67913,0.520846 2.74256,1.469419 v 0 0 q 1.04476,0.930041 1.21268,2.176338 v 0 0 q 0.14927,1.246293 -1.02611,2.678685 z m 14.01131,6.510347 v 0 0 q -1.41793,0.372025 -2.57462,0.260423 v 0 0 q -1.17541,-0.09301 -1.90303,-0.55803 v 0 0 q -0.74628,-0.446418 -1.00748,-1.20908 v 0 0 q -0.24248,-0.781277 0.14924,-1.748535 v 0 0 q 0.80226,0.688239 1.88441,0.744108 v 0 0 q 1.06341,0.07407 2.05224,-0.03703 v 0 0 q 0.83953,-0.07407 1.26866,-0.353469 v 0 0 q 0.4291,-0.297568 0.54102,-0.669632 v 0 0 q 0.11197,-0.37206 -0.0743,-0.799822 v 0 0 q -0.18653,-0.40924 -0.59696,-0.744106 v 0 0 q -0.39181,-0.353395 -0.98888,-0.558041 v 0 0 q -0.57833,-0.204629 -1.28734,-0.185909 v 0 0 q -0.76491,0.0556 -1.43652,0.371984 v 0 0 q -0.69029,0.31625 -1.2127,0.855612 v 0 0 q -0.5224,0.558063 -0.8209,1.283513 v 0 0 q -0.31716,0.725449 -0.35449,1.618276 v 0 0 q -0.0186,0.725447 0.18656,1.432322 v 0 0 q 0.1866,0.688248 0.57838,1.283475 v 0 0 q 0.39178,0.576646 0.93287,0.9859 v 0 0 q 0.5597,0.409187 1.26861,0.502196 v 0 0 q 0.98888,0.186021 2.0336,-0.130229 v 0 0 q 1.04478,-0.297605 1.84706,-1.134646 v 0 l 2.74258,1.320678 v 0 q -1.06345,1.599684 -2.53736,2.287939 v 0 0 q -1.45526,0.688249 -3.33955,0.688249 v 0 0 q -1.75381,0 -3.05975,-0.613844 v 0 0 q -1.32468,-0.613835 -2.20151,-1.636913 v 0 0 q -0.87686,-1.004458 -1.30601,-2.287939 v 0 0 q -0.42908,-1.302073 -0.41044,-2.641373 v 0 0 q 0.037,-1.339316 0.52239,-2.622762 v 0 0 q 0.50374,-1.302121 1.4366,-2.287905 v 0 0 q 1.04478,-1.116138 2.44404,-1.581101 v 0 0 q 1.39926,-0.46508 2.87316,-0.46508 v 0 0 q 1.60452,0 2.77991,0.539421 v 0 0 q 1.17539,0.539493 1.92159,1.395113 v 0 0 q 0.72763,0.837101 0.95155,1.878729 v 0 0 q 0.24256,1.023055 -0.037,1.990329 v 0 0 q -0.26124,0.967256 -1.08212,1.729929 v 0 0 q -0.80227,0.762628 -2.18288,1.097443 z m 9.02993,-8.277491 v 1.562502 0 q 0.20521,-0.46507 0.63438,-0.799822 v 0 0 q 0.42909,-0.334861 0.95148,-0.576712 v 0 0 q 0.52238,-0.241774 1.08207,-0.372056 v 0 0 q 0.54107,-0.130155 1.00748,-0.148729 v 0 0 q 1.0075,-0.05552 1.959,0.278996 v 0 0 q 0.97013,0.316141 1.79107,1.134673 v 0 0 q 1.17538,1.209106 1.17538,3.515655 v 0 8.891343 h -3.35824 v 0 q 0,-0.427827 0.0185,-1.190479 v 0 0 q 0.0185,-0.762659 0.0185,-1.655523 v 0 0 q 0,-0.892853 0,-1.860104 v 0 0 q 0,-0.967267 -0.0373,-1.822941 v 0 0 q -0.0185,-0.855663 -0.0742,-1.543884 v 0 0 q -0.056,-0.669647 -0.13061,-0.985832 v 0 0 q -0.20521,-0.837052 -0.80222,-1.246254 v 0 0 q -0.57837,-0.409257 -1.24999,-0.409257 v 0 0 q -0.89555,0 -1.3993,0.483625 v 0 0 q -0.48511,0.464989 -0.48511,1.246258 v 0 0 q -0.31714,-0.09302 -0.63428,-0.427792 v 0 0 q -0.3171,-0.31625 -0.46638,-0.688231 v 0 0.706755 9.393659 H 131.6542 V 15.565664 Z"
       id="path8"
       style="fill:#fffdfd;fill-opacity:1;stroke:none;stroke-width:1.85932;stroke-miterlimit:4;stroke-dasharray:none;stroke-opacity:1" />
  </g>
</svg>
